REM DIRINDEX 1\2,1\3,1\4,1\5
REM DIRNAME folder01,folder02,folder03,folder04,folder05
TITLE ""
FILE "1Q_t_1149-1158.mp3" MP3
  TRACK 01 AUDIO
    TITLE "3:cjc004_4351"
    INDEX 01 00:00:00
  TRACK 02 AUDIO
    TITLE "0:"
    INDEX 01 00:00:60
  TRACK 03 AUDIO
    TITLE "4:cjc004_4352"
    INDEX 01 00:01:17
  TRACK 04 AUDIO
    TITLE "0:"
    INDEX 01 00:02:40
  TRACK 05 AUDIO
    TITLE "5:cjc004_4353"
    INDEX 01 00:02:65
  TRACK 06 AUDIO
    TITLE "0:"
    INDEX 01 00:07:21
  TRACK 07 AUDIO
    TITLE "3:cjc004_4354"
    INDEX 01 00:08:01
  TRACK 08 AUDIO
    TITLE "0:"
    INDEX 01 00:09:04
  TRACK 09 AUDIO
    TITLE "4:cjc004_4355"
    INDEX 01 00:09:30
  TRACK 10 AUDIO
    TITLE "0:"
    INDEX 01 00:11:09
  TRACK 11 AUDIO
    TITLE "5:cjc004_4356"
    INDEX 01 00:11:35
  TRACK 12 AUDIO
    TITLE "0:"
    INDEX 01 00:16:28
  TRACK 13 AUDIO
    TITLE "3:cjc004_4357"
    INDEX 01 00:17:06
  TRACK 14 AUDIO
    TITLE "0:"
    INDEX 01 00:18:13
  TRACK 15 AUDIO
    TITLE "4:cjc004_4358"
    INDEX 01 00:18:41
  TRACK 16 AUDIO
    TITLE "0:"
    INDEX 01 00:19:40
  TRACK 17 AUDIO
    TITLE "5:cjc004_4359"
    INDEX 01 00:19:69
  TRACK 18 AUDIO
    TITLE "0:"
    INDEX 01 00:25:19
  TRACK 19 AUDIO
    TITLE "3:cjc004_4360"
    INDEX 01 00:26:01
  TRACK 20 AUDIO
    TITLE "0:"
    INDEX 01 00:27:16
  TRACK 21 AUDIO
    TITLE "4:cjc004_4361"
    INDEX 01 00:27:39
  TRACK 22 AUDIO
    TITLE "0:"
    INDEX 01 00:28:55
  TRACK 23 AUDIO
    TITLE "5:cjc004_4362"
    INDEX 01 00:29:03
  TRACK 24 AUDIO
    TITLE "0:"
    INDEX 01 00:34:10
  TRACK 25 AUDIO
    TITLE "3:cjc004_4363"
    INDEX 01 00:34:63
  TRACK 26 AUDIO
    TITLE "0:"
    INDEX 01 00:35:66
  TRACK 27 AUDIO
    TITLE "4:cjc004_4364"
    INDEX 01 00:36:21
  TRACK 28 AUDIO
    TITLE "0:"
    INDEX 01 00:37:36
  TRACK 29 AUDIO
    TITLE "5:cjc004_4365"
    INDEX 01 00:37:65
  TRACK 30 AUDIO
    TITLE "0:"
    INDEX 01 00:43:40
  TRACK 31 AUDIO
    TITLE "3:cjc004_4366"
    INDEX 01 00:44:18
  TRACK 32 AUDIO
    TITLE "0:"
    INDEX 01 00:45:22
  TRACK 33 AUDIO
    TITLE "4:cjc004_4367"
    INDEX 01 00:45:53
  TRACK 34 AUDIO
    TITLE "0:"
    INDEX 01 00:46:66
  TRACK 35 AUDIO
    TITLE "5:cjc004_4368"
    INDEX 01 00:47:15
  TRACK 36 AUDIO
    TITLE "0:"
    INDEX 01 00:52:10
  TRACK 37 AUDIO
    TITLE "3:cjc004_4369"
    INDEX 01 00:52:65
  TRACK 38 AUDIO
    TITLE "0:"
    INDEX 01 00:53:72
  TRACK 39 AUDIO
    TITLE "4:cjc004_4370"
    INDEX 01 00:54:27
  TRACK 40 AUDIO
    TITLE "0:"
    INDEX 01 00:55:40
  TRACK 41 AUDIO
    TITLE "5:cjc004_4371"
    INDEX 01 00:55:65
  TRACK 42 AUDIO
    TITLE "0:"
    INDEX 01 01:01:70
  TRACK 43 AUDIO
    TITLE "3:cjc004_4372"
    INDEX 01 01:02:46
  TRACK 44 AUDIO
    TITLE "0:"
    INDEX 01 01:03:67
  TRACK 45 AUDIO
    TITLE "4:cjc004_4373"
    INDEX 01 01:04:17
  TRACK 46 AUDIO
    TITLE "0:"
    INDEX 01 01:05:24
  TRACK 47 AUDIO
    TITLE "5:cjc004_4374"
    INDEX 01 01:05:50
  TRACK 48 AUDIO
    TITLE "0:"
    INDEX 01 01:09:73
  TRACK 49 AUDIO
    TITLE "3:cjc004_4375"
    INDEX 01 01:10:47
  TRACK 50 AUDIO
    TITLE "0:"
    INDEX 01 01:11:66
  TRACK 51 AUDIO
    TITLE "4:cjc004_4376"
    INDEX 01 01:12:21
  TRACK 52 AUDIO
    TITLE "0:"
    INDEX 01 01:13:10
  TRACK 53 AUDIO
    TITLE "5:cjc004_4377"
    INDEX 01 01:13:38
  TRACK 54 AUDIO
    TITLE "0:"
    INDEX 01 01:20:28
  TRACK 55 AUDIO
    TITLE "3:cjc004_4378"
    INDEX 01 01:21:02
  TRACK 56 AUDIO
    TITLE "0:"
    INDEX 01 01:22:15
  TRACK 57 AUDIO
    TITLE "4:cjc004_4379"
    INDEX 01 01:22:39
  TRACK 58 AUDIO
    TITLE "0:"
    INDEX 01 01:23:58
  TRACK 59 AUDIO
    TITLE "5:cjc004_4380"
    INDEX 01 01:24:08
  TRACK 60 AUDIO
    TITLE "0:"
    INDEX 01 01:29:31
